<?xml version="1.0" encoding="UTF-8"?>
<svg version="1.1" xmlns="http://www.w3.org/2000/svg" width="1024" height="1024">
<path d="M0 0 C1.11498367 -0.00960754 2.22996735 -0.01921509 3.3787384 -0.02911377 C4.57464096 -0.03336365 5.77054352 -0.03761353 7.00268555 -0.04199219 C8.24181198 -0.04769226 9.48093842 -0.05339233 10.75761414 -0.05926514 C13.37762603 -0.06870369 15.99764973 -0.07524457 18.61767578 -0.07910156 C21.29359541 -0.08349098 23.96919346 -0.09740469 26.64501953 -0.12011719 C30.51434062 -0.15064249 34.38325732 -0.16115635 38.25268555 -0.16699219 C39.44251541 -0.17933899 40.63234528 -0.19168579 41.85823059 -0.20440674 C49.12207587 -0.18501974 55.32453543 0.17867262 61.3503418 4.66894531 C61.79635742 5.20261719 62.24237305 5.73628906 62.7019043 6.28613281 C63.16338867 6.80433594 63.62487305 7.32253906 64.1003418 7.85644531 C67.94968 15.08927823 67.59764968 23.44259304 67.5222168 31.41503906 C67.5193869 32.55649887 67.51655701 33.69795868 67.51364136 34.87400818 C67.50251906 38.49066004 67.4774291 42.10705682 67.4519043 45.72363281 C67.44186423 48.18782192 67.43274018 50.65201495 67.42456055 53.11621094 C67.40260579 59.13127073 67.36920804 65.14618354 67.3269043 71.16113281 C66.55709229 71.47928955 65.78728027 71.79744629 64.99414062 72.12524414 C35.76671156 84.24647762 10.77037789 98.2388996 -3.1652832 128.12988281 C-6.85827359 137.35515529 -8.23274391 146.51960025 -8.1730957 156.41113281 C-8.16669067 158.0403064 -8.16669067 158.0403064 -8.16015625 159.70239258 C-7.87628353 173.22295938 -4.213466 188.11649252 5.2019043 198.28613281 C9.28237777 203.51066427 7.07614733 211.98173238 6.3269043 218.16113281 C6.50229736 217.51789063 6.67769043 216.87464844 6.85839844 216.21191406 C12.64873156 195.17389129 19.17465509 176.1496799 33.3269043 159.16113281 C33.97143555 158.38125 34.6159668 157.60136719 35.2800293 156.79785156 C44.58439322 145.99445122 55.83789449 137.43996044 67.18212891 128.90527344 C73.23144126 124.32146948 78.84355455 119.4076208 84.3269043 114.16113281 C83.70686523 114.56203125 83.08682617 114.96292969 82.44799805 115.37597656 C77.64572066 118.45866117 72.8196807 121.47581709 67.89868164 124.36425781 C59.69935206 129.19164232 51.91768902 134.42542462 44.3269043 140.16113281 C43.2853418 140.94101562 42.2437793 141.72089844 41.1706543 142.52441406 C24.74794361 155.4551824 15.50926671 172.42850733 9.3269043 192.16113281 C6.50017416 189.49893424 5.24100093 187.0887487 3.7644043 183.47363281 C3.35061523 182.47976563 2.93682617 181.48589844 2.51049805 180.46191406 C-3.90362731 162.57433676 -1.76260557 143.27385591 5.85913086 126.14135742 C12.40273807 112.32945997 22.45071757 101.36212991 35.3269043 93.16113281 C36.40584961 92.45988281 37.48479492 91.75863281 38.59643555 91.03613281 C49.85360043 84.23725105 62.4319928 80.5308931 74.89331055 76.58569336 C82.56935693 74.14708797 90.12258042 71.56369028 97.5769043 68.50488281 C98.26792236 68.22208466 98.95894043 67.9392865 99.67089844 67.6479187 C109.99808007 63.31490548 117.72469237 57.33351063 125.3269043 49.16113281 C126.32245002 48.15669829 127.32063489 47.15482385 128.3269043 46.16113281 C138.70747152 81.98024422 143.1512358 118.92033928 125.29174805 153.20410156 C110.03147696 180.73450303 84.43027913 198.48366963 54.6081543 207.25488281 C45.00709589 209.49812076 35.12931737 210.27285444 25.3269043 211.16113281 C24.3369043 214.13113281 24.3369043 214.13113281 23.3269043 217.16113281 C38.20200972 217.90904314 52.09426327 215.4022688 66.3269043 211.16113281 C66.43552263 213.87055674 66.51449006 216.57557182 66.5769043 219.28613281 C66.61041992 220.04667969 66.64393555 220.80722656 66.6784668 221.59082031 C66.79193408 228.171923 64.64635583 231.56053564 60.2644043 236.47363281 C56.79535822 239.49506004 53.53137815 239.29965705 49.11474609 239.33813477 C47.19211189 239.35738762 47.19211189 239.35738762 45.2306366 239.37702942 C43.82913602 239.38519726 42.42763106 239.39264091 41.02612305 239.39941406 C40.31924662 239.40348959 39.61237019 239.40756512 38.88407326 239.41176414 C35.14244506 239.43260683 31.40085334 239.4469162 27.65917969 239.45629883 C23.80222554 239.4673587 19.94584903 239.50175803 16.08909893 239.54147053 C13.11644954 239.56766287 10.14393726 239.57599294 7.17118263 239.57958031 C5.74985669 239.58443969 4.3285366 239.59603531 2.90732384 239.6146183 C0.91410687 239.63906027 -1.0793922 239.63561998 -3.07275391 239.63110352 C-4.20509964 239.63696976 -5.33744537 239.642836 -6.50410461 239.64888 C-11.56954723 238.86924531 -14.65781682 236.31361154 -17.9855957 232.53613281 C-20.67857898 228.74600819 -20.79572287 226.7009872 -20.78662109 222.05908203 C-20.7865078 220.13731644 -20.7865078 220.13731644 -20.78639221 218.17672729 C-20.78128518 216.77309124 -20.77606918 215.36945558 -20.77075195 213.96582031 C-20.76888716 212.53378346 -20.76746355 211.10174597 -20.76646423 209.66970825 C-20.76264389 205.89839928 -20.75281772 202.12712874 -20.74176025 198.35583496 C-20.73153576 194.50838745 -20.72696438 190.66093374 -20.72192383 186.81347656 C-20.71119503 179.26267778 -20.69412439 171.71191068 -20.6730957 164.16113281 C-21.6630957 164.49113281 -22.6530957 164.82113281 -23.6730957 165.16113281 C-25.61995645 165.24178388 -27.56959035 165.26091271 -29.51806641 165.24633789 C-30.71973953 165.23915237 -31.92141266 165.23196686 -33.15950012 165.2245636 C-34.45949448 165.21007675 -35.75948883 165.1955899 -37.09887695 165.18066406 C-37.76162313 165.17370703 -38.42436932 165.16674999 -39.10719872 165.15958214 C-42.61551053 165.12220502 -46.12367027 165.07821081 -49.63183594 165.02905273 C-53.24637974 164.97975243 -56.86070331 164.95352612 -60.47550678 164.93262196 C-63.26308175 164.91219703 -66.05022832 164.87430043 -68.83754539 164.83176231 C-70.81485783 164.80610548 -72.79238406 164.79910667 -74.76985168 164.79243469 C-85.91805481 164.58121846 -85.91805481 164.58121846 -90.6730957 160.16113281 C-94.8646312 155.51645834 -95.79426538 152.33724356 -95.85009766 146.16430664 C-95.86293289 144.92904739 -95.87576813 143.69378815 -95.88899231 142.4210968 C-95.89716208 141.07012332 -95.90460536 139.71914528 -95.91137695 138.36816406 C-95.91545248 137.68584906 -95.91952801 137.00353405 -95.92372704 136.30054283 C-95.94457432 132.68628622 -95.95887958 129.07206737 -95.96826172 125.45776367 C-95.97929997 121.73999983 -96.01367275 118.02283883 -96.05343342 114.30528736 C-96.07969083 111.43378148 -96.08796175 108.56241697 -96.0915432 105.69080162 C-96.09638876 104.32136672 -96.10794446 102.95193727 -96.12658119 101.58262062 C-96.31679733 86.67542024 -96.31679733 86.67542024 -91.6730957 81.16113281 C-87.35793246 76.7400262 -83.04060182 75.85310352 -76.98168945 75.59350586 C-74.35436821 75.5942929 -71.73650234 75.6211244 -69.1105957 75.67285156 C-67.70956695 75.68219297 -66.30852172 75.6893028 -64.9074707 75.69429016 C-61.24430153 75.71325636 -57.58214527 75.76226346 -53.91937256 75.81781006 C-50.17205503 75.86922965 -46.42457162 75.89185226 -42.67700195 75.91699219 C-35.34190792 75.97039581 -28.00764448 76.05557804 -20.6730957 76.16113281 C-20.68197815 75.37488022 -20.6908606 74.58862762 -20.70001221 73.77854919 C-20.78034169 66.34911153 -20.84115273 58.91988607 -20.88034439 51.49012661 C-20.90117107 47.67088143 -20.92939731 43.85199674 -20.97485352 40.03295898 C-21.01848895 36.34357754 -21.04226978 32.65454164 -21.05260468 28.96492195 C-21.05996453 27.56115344 -21.07433662 26.15740267 -21.09601593 24.75378227 C-21.29970957 11.01240781 -21.29970957 11.01240781 -16.6730957 5.16113281 C-11.28552347 0.80522334 -6.7666918 0.04727296 0 0 Z " fill="#28948F" transform="translate(195.673095703125,380.8388671875)"/>
<path d="M0 0 C1.97382874 2.9607431 2.61276692 4.86255655 3.4375 8.26953125 C3.69192871 9.31560547 3.94635742 10.36167969 4.20849609 11.43945312 C12.35050265 46.13715905 14.13487997 81.23912 -5.31982422 112.64013672 C-21.68411621 137.6994448 -46.89595905 155.06038763 -76.0625 161.875 C-84.62653879 163.46473175 -93.33149899 164.21447486 -102 165 C-104.79888221 173.61030177 -107.46293719 182.05708912 -109 191 C-111.97 191 -114.94 191 -118 191 C-118.83404362 172.82518138 -118.76819537 156.8521992 -111 140 C-110.64164063 139.21786133 -110.28328125 138.43572266 -109.9140625 137.62988281 C-105.64400888 128.55601887 -100.7052891 120.50105298 -94 113 C-93.00613281 111.81083984 -93.00613281 111.81083984 -91.9921875 110.59765625 C-82.73777428 99.78945778 -71.46384159 91.25989265 -60.14477539 82.74414062 C-54.09546303 78.16033667 -48.48334975 73.24648799 -43 68 C-43.62003906 68.40089844 -44.24007812 68.80179687 -44.87890625 69.21484375 C-49.68118364 72.29752836 -54.5072236 75.31468428 -59.42822266 78.203125 C-67.62755223 83.0305095 -75.40921528 88.26429181 -83 94 C-84.0415625 94.77988281 -85.083125 95.55976562 -86.15625 96.36328125 C-102.57896069 109.29404959 -111.81763759 126.26737452 -118 146 C-120.82673014 143.33780143 -122.08590337 140.92761589 -123.5625 137.3125 C-124.18318359 135.82169922 -124.18318359 135.82169922 -124.81640625 134.30078125 C-131.2305316 116.41320394 -129.08950986 97.1127231 -121.46777344 79.98022461 C-114.92416623 66.16832715 -104.87618672 55.20099709 -92 47 C-90.92105469 46.29875 -89.84210938 45.5975 -88.73046875 44.875 C-77.47330387 38.07611824 -64.8949115 34.36976029 -52.43359375 30.42456055 C-44.75754736 27.98595516 -37.20432388 25.40255747 -29.75 22.34375 C-29.05898193 22.06095184 -28.36796387 21.77815369 -27.65600586 21.48678589 C-16.59213662 16.84467796 -6.74096467 10.111447 0 0 Z " fill="#093245" transform="translate(323,427)"/>
<path d="M0 0 C7.92 0 15.84 0 24 0 C32.09683516 19.36675436 39.96341266 38.81947893 47.75 58.3125 C48.00279976 58.94535542 48.25559952 59.57821083 48.51605988 60.23024368 C51.68029423 68.15233093 54.84151581 76.07561844 58 84 C60.83218018 81.16781982 61.76855299 77.71383867 63.1328125 74.0234375 C63.44209686 73.20149902 63.75138123 72.37956055 64.07003784 71.53271484 C64.74120997 69.74874703 65.41015596 67.96394048 66.07714844 66.17840576 C67.85332867 61.42644081 69.64800401 56.68150771 71.4453125 51.9375 C71.81593811 50.95905121 72.18656372 49.98060242 72.56842041 48.97250366 C76.59001474 38.39115233 80.77866812 27.87796987 85 17.375 C85.35451233 16.49253601 85.70902466 15.61007202 86.07427979 14.7008667 C88.044672 9.79859884 90.02145766 4.89899712 92 0 C100.25 0 108.5 0 117 0 C117.02254742 15.4984013 117.04097941 30.99679453 117.05181217 46.49520779 C117.05697503 53.69090295 117.06401753 60.88658722 117.07543945 68.08227539 C117.0853866 74.35184694 117.0918535 80.62141061 117.09408849 86.89098984 C117.09539555 90.21265621 117.09899997 93.53429466 117.10573006 96.85595512 C117.11293628 100.55819947 117.11399112 104.26039631 117.11352539 107.96264648 C117.11712067 109.07178909 117.12071594 110.1809317 117.12442017 111.32368469 C117.1230455 112.32634369 117.12167084 113.32900269 117.12025452 114.36204529 C117.12117631 115.23867042 117.1220981 116.11529554 117.12304783 117.01848507 C117 119 117 119 116 120 C109.4 120 102.8 120 96 120 C96.33 92.94 96.66 65.88 97 38 C93.7 46.91 90.4 55.82 87 65 C83.69121249 73.44813106 80.36675458 81.8876449 77 90.3125 C75.73122081 93.4926711 74.46340949 96.67321952 73.19750977 99.85453796 C72.42244905 101.80187801 71.64570401 103.74854887 70.86694336 105.69441223 C70.51897705 106.56780746 70.17101074 107.4412027 69.8125 108.34106445 C69.50957031 109.0990181 69.20664062 109.85697174 68.89453125 110.63789368 C67.84990099 113.39635263 66.93275657 116.2017303 66 119 C61.05 119 56.1 119 51 119 C42.73570066 98.20441857 34.47863158 77.40722412 26.5 56.5 C26.08519882 55.41371307 26.08519882 55.41371307 25.66201782 54.30548096 C21.22890679 42.68672037 21.22890679 42.68672037 20 39 C20 65.73 20 92.46 20 120 C13.4 120 6.8 120 0 120 C0 80.4 0 40.8 0 0 Z " fill="#0B3145" transform="translate(614,437)"/>
<path d="M0 0 C6.6 0 13.2 0 20 0 C20 39.27 20 78.54 20 119 C13.4 119 6.8 119 0 119 C0 116.36 0 113.72 0 111 C-0.47308594 111.38671875 -0.94617188 111.7734375 -1.43359375 112.171875 C-10.39259757 119.22730881 -18.44282921 122.32441181 -30 122 C-41.10846337 120.58247829 -49.41548294 115.7463749 -56.5 107.13671875 C-62.70548682 98.29713205 -64.37970661 88.32351968 -64.3125 77.75 C-64.30686035 76.82340576 -64.3012207 75.89681152 -64.29541016 74.94213867 C-64.05463383 61.32158869 -60.56026569 50.67198232 -51.125 40.625 C-43.15522977 33.1097794 -33.66084257 30.49976202 -22.8671875 30.75390625 C-13.39468604 31.56694112 -8.85553897 34.10834577 -1 40 C-0.67 26.8 -0.34 13.6 0 0 Z M-38 55 C-43.83806759 64.78539739 -45.57122054 74.54313649 -43.46875 85.859375 C-41.26237122 93.77355976 -38.06898958 98.75328558 -31 103.01953125 C-25.28063562 105.82336027 -19.32669691 105.76219382 -13.375 103.8125 C-5.94571436 99.82269846 -2.55419313 96.00117777 0 88 C0.53386297 84.31291331 0.56165908 80.72009787 0.5 77 C0.51546875 76.06671875 0.5309375 75.1334375 0.546875 74.171875 C0.5048443 66.64838001 -1.08496945 60.53462207 -5.9296875 54.66015625 C-15.5931589 46.72369078 -28.74340148 44.97201828 -38 55 Z " fill="#093144" transform="translate(574,437)"/>
<path d="M0 0 C6.6 0 13.2 0 20 0 C20 39.27 20 78.54 20 119 C13.4 119 6.8 119 0 119 C-0.495 115.535 -0.495 115.535 -1 112 C-1.49628906 112.39832031 -1.99257813 112.79664063 -2.50390625 113.20703125 C-10.69173522 119.59260565 -18.34165655 122.68263786 -28.8046875 121.75 C-39.80250294 120.04396769 -46.9090512 115.63363613 -54 107 C-62.46329393 93.89421959 -63.27293231 76.00743782 -60.34765625 60.96484375 C-57.22497653 49.72051636 -50.80932853 41.25497148 -41 35 C-31.15053029 29.56373464 -20.32913938 30.15429351 -9.73828125 32.7578125 C-7 34 -7 34 0 40 C0 26.8 0 13.6 0 0 Z M-35.875 55.9375 C-42.33616611 65.24918058 -42.10182277 77.50988055 -40.25 88.375 C-38.81085006 94.53574461 -36.30575772 98.34107488 -31 101.8125 C-26.09354278 104.7736236 -21.73246648 105.55475482 -16 105 C-9.92649376 103.11345923 -5.86942939 100.53688866 -2.4375 95.125 C-0.29108934 91.00751926 0.84095485 87.69183185 1 83 C1.03738281 82.00871094 1.07476563 81.01742187 1.11328125 79.99609375 C1.31874087 70.66390138 1.11967251 62.47959973 -5 55 C-10.43711263 49.73413501 -14.72700467 48.63446901 -22.14453125 48.72265625 C-27.86550625 49.27831866 -32.07951781 51.66758254 -35.875 55.9375 Z " fill="#0A3144" transform="translate(892,437)"/>
<path d="M0 0 C9.03548755 7.9793916 11.77376053 16.64881901 13.5625 28.375 C13.5625 33.655 13.5625 38.935 13.5625 44.375 C-5.5775 44.375 -24.7175 44.375 -44.4375 44.375 C-41.05539261 56.37246504 -41.05539261 56.37246504 -32.703125 64 C-26.59022752 66.57385157 -19.28892179 66.48909713 -12.92578125 64.6484375 C-8.3721803 62.5147502 -6.19704519 60.13454519 -2.4375 56.375 C2.1825 58.685 6.8025 60.995 11.5625 63.375 C8.15943558 71.88266104 1.89550668 76.7631286 -6.4375 80.375 C-18.44613581 84.49844724 -32.95489754 83.73671107 -44.4375 78.375 C-54.93785934 72.10967985 -60.85827192 62.85494429 -64.02734375 51.20703125 C-66.15030766 36.54847091 -65.37053569 21.39790706 -57.234375 8.73046875 C-50.75756724 0.24021858 -42.32709453 -5.33272582 -31.83984375 -7.3046875 C-20.34196059 -8.83773859 -9.47432141 -7.02749967 0 0 Z M-39.75 14.8125 C-43.77232358 20.92047285 -43.4375 23.30775724 -43.4375 31.375 C-30.8975 31.375 -18.3575 31.375 -5.4375 31.375 C-3.56399969 27.62799939 -5.33396933 23.25226991 -6.4375 19.375 C-9.40192291 13.65789868 -13.32068152 10.41393949 -19.4375 8.375 C-28.07779519 7.53573566 -33.60590655 8.33629339 -39.75 14.8125 Z " fill="#0A3043" transform="translate(808.4375,475.625)"/>
<path d="M0 0 C1.12039673 0.01353516 1.12039673 0.01353516 2.26342773 0.02734375 C10.76784869 0.29284762 16.80024896 2.35409637 23.0625 8.25 C32.38566759 18.4378162 32.99124951 29.14253295 32.8828125 42.44140625 C32.8799826 43.76043442 32.87715271 45.07946259 32.87423706 46.4384613 C32.86666474 49.91545436 32.84707277 53.39227565 32.8248291 56.86920166 C32.80423129 60.42905353 32.79520579 63.98893362 32.78515625 67.54882812 C32.76381958 74.51179567 32.72869109 81.47462186 32.6875 88.4375 C26.0875 88.4375 19.4875 88.4375 12.6875 88.4375 C12.657771 86.15320068 12.657771 86.15320068 12.62744141 83.82275391 C12.55100319 78.13834932 12.46234602 72.45418803 12.37011719 66.77001953 C12.33198473 64.31629258 12.29710527 61.86251272 12.265625 59.40869141 C12.21963143 55.86862358 12.16169462 52.32891507 12.1015625 48.7890625 C12.09001129 47.70323883 12.07846008 46.61741516 12.06655884 45.49868774 C11.86861347 34.06746442 11.86861347 34.06746442 8 23.5 C3.50178788 19.48808108 -0.31635874 18.12890428 -6.25 18.375 C-11.62461964 19.13695065 -15.75407497 21.31202802 -19.3125 25.4375 C-22.89019488 31.86636128 -22.78454654 37.90739703 -22.82421875 45.15234375 C-22.84216995 46.36322159 -22.86012115 47.57409943 -22.87861633 48.82167053 C-22.93261128 52.6727454 -22.96658149 56.52369705 -23 60.375 C-23.03318249 62.99285564 -23.06767301 65.61069505 -23.10351562 68.22851562 C-23.18833209 74.63142139 -23.25519564 81.03429129 -23.3125 87.4375 C-29.9125 87.4375 -36.5125 87.4375 -43.3125 87.4375 C-43.3125 59.3875 -43.3125 31.3375 -43.3125 2.4375 C-37.0425 2.4375 -30.7725 2.4375 -24.3125 2.4375 C-23.9825 4.7475 -23.6525 7.0575 -23.3125 9.4375 C-22.81621094 9.03917969 -22.31992187 8.64085937 -21.80859375 8.23046875 C-21.12925781 7.70066406 -20.44992187 7.17085938 -19.75 6.625 C-19.08871094 6.10292969 -18.42742187 5.58085937 -17.74609375 5.04296875 C-11.91871969 1.19858554 -6.82810179 -0.09879021 0 0 Z " fill="#072E41" transform="translate(464.3125,468.5625)"/>
<path d="M0 0 C6.6 0 13.2 0 20 0 C21 1 21 1 21.12304783 2.96589756 C21.12166514 4.26977374 21.12166514 4.26977374 21.12025452 5.59999084 C21.12162918 6.59423569 21.12300385 7.58848053 21.12442017 8.612854 C21.12082489 9.71264587 21.11722961 10.81243774 21.11352539 11.94555664 C21.11367142 13.09662399 21.11381744 14.24769135 21.1139679 15.43363953 C21.11326818 19.25916391 21.10547302 23.08464031 21.09765625 26.91015625 C21.09579228 29.55431593 21.09436828 32.19847596 21.09336853 34.84263611 C21.09025549 41.10415417 21.08204248 47.36565486 21.07201904 53.62716526 C21.06085705 60.75401537 21.05534724 67.8808663 21.05032361 75.00772297 C21.03985984 89.67182452 21.02206044 104.33591144 21 119 C14.07 119 7.14 119 0 119 C0 79.73 0 40.46 0 0 Z " fill="#0E3346" transform="translate(381,437)"/>
<path d="M0 0 C5.94 0 11.88 0 18 0 C18 39.27 18 78.54 18 119 C11.73 119 5.46 119 -1 119 C-1 116.36 -1 113.72 -1 111 C-0.67 111 -0.34 111 0 111 C0 112.98 0 114.96 0 117 C5.28 117 10.56 117 16 117 C16 79.05 16 41.1 16 2 C10.72 2 5.44 2 0 2 C0 1.34 0 0.68 0 0 Z " fill="#08273E" transform="translate(894,437)"/>
<path d="M0 0 C0 39.27 0 78.54 0 119 C-6.6 119 -13.2 119 -20 119 C-20 116.36 -20 113.72 -20 111 C-19.67 111 -19.34 111 -19 111 C-19 113.31 -19 115.62 -19 118 C-13.39 118 -7.78 118 -2 118 C-2 79.72 -2 41.44 -2 2 C-6.95 2 -11.9 2 -17 2 C-17 1.67 -17 1.34 -17 1 C-14.54171921 0.83252588 -12.08338135 0.6659856 -9.625 0.5 C-8.92632813 0.45230469 -8.22765625 0.40460938 -7.5078125 0.35546875 C-2.2265625 0 -2.2265625 0 0 0 Z " fill="#38404E" transform="translate(594,437)"/>
<path d="M0 0 C0.33 0 0.66 0 1 0 C1 38.28 1 76.56 1 116 C6.61 116 12.22 116 18 116 C17.98839844 114.40542969 17.97679687 112.81085938 17.96484375 111.16796875 C17.85878388 88.76779254 18.41055476 66.39108063 19 44 C19.33 44 19.66 44 20 44 C20 68.42 20 92.84 20 118 C13.4 118 6.8 118 0 118 C0 79.06 0 40.12 0 0 Z " fill="#2C4758" transform="translate(614,439)"/>
<path d="M0 0 C2 2 2 2 2.24050903 4.51834106 C2.23606781 5.5797934 2.23162659 6.64124573 2.22705078 7.73486328 C2.22682419 9.53650436 2.22682419 9.53650436 2.22659302 11.37454224 C2.21627045 12.67664642 2.20594788 13.97875061 2.1953125 15.3203125 C2.19158276 16.66266673 2.18873561 18.00502367 2.18673706 19.34738159 C2.17909744 22.882014 2.1594463 26.41648228 2.1373291 29.9510498 C2.11687765 33.5571877 2.10773685 37.16335209 2.09765625 40.76953125 C2.0762006 47.84642135 2.04206079 54.92319997 2 62 C-1.96 61.505 -1.96 61.505 -6 61 C-6 60.67 -6 60.34 -6 60 C-4.02 60 -2.04 60 0 60 C0 40.2 0 20.4 0 0 Z " fill="#253543" transform="translate(495,495)"/>
<path d="M0 0 C5.94 0 11.88 0 18 0 C17.67 29.04 17.34 58.08 17 88 C16.67 88 16.34 88 16 88 C16 59.62 16 31.24 16 2 C10.72 2 5.44 2 0 2 C0 1.34 0 0.68 0 0 Z " fill="#01142A" transform="translate(894,437)"/>
<path d="M0 0 C0.33 0 0.66 0 1 0 C1 11.55 1 23.1 1 35 C6.61 35 12.22 35 18 35 C18 25.1 18 15.2 18 5 C18.33 5 18.66 5 19 5 C19 15.56 19 26.12 19 37 C12.4 37 5.8 37 -1 37 C-1.10670371 24.62236997 -0.71554916 12.35600076 0 0 Z " fill="#363A45" transform="translate(711,520)"/>
<path d="M0 0 C0.66 0 1.32 0 2 0 C3.51708428 11.52164009 3.51708428 11.52164009 1 17 C1.66 17 2.32 17 3 17 C3 16.34 3 15.68 3 15 C4.32 14.67 5.64 14.34 7 14 C7.33 16.64 7.66 19.28 8 22 C5.03 22 2.06 22 -1 22 C-1.02700675 19.08327116 -1.04684237 16.16679323 -1.0625 13.25 C-1.07087891 12.425 -1.07925781 11.6 -1.08789062 10.75 C-1.09111328 9.95078125 -1.09433594 9.1515625 -1.09765625 8.328125 C-1.10289307 7.5949707 -1.10812988 6.86181641 -1.11352539 6.10644531 C-0.9975109 3.9538151 -0.59073271 2.0685865 0 0 Z " fill="#113347" transform="translate(206,596)"/>
<path d="M0 0 C0.33 0 0.66 0 1 0 C1.33 9.9 1.66 19.8 2 30 C-4.27 30 -10.54 30 -17 30 C-17 27.36 -17 24.72 -17 22 C-16.67 22 -16.34 22 -16 22 C-16 23.98 -16 25.96 -16 28 C-10.72 28 -5.44 28 0 28 C0 18.76 0 9.52 0 0 Z " fill="#00152A" transform="translate(910,526)"/>
<path d="M0 0 C6.93 2.97 6.93 2.97 14 6 C14 10 14 10 11.5 12.75 C10.675 13.4925 9.85 14.235 9 15 C7.5783681 11.6828589 6.60990891 8.55780196 6 5 C4.68 4.67 3.36 4.34 2 4 C1.67 4.99 1.34 5.98 1 7 C0.34 6.67 -0.32 6.34 -1 6 C-1.042721 4.33388095 -1.04063832 2.66617115 -1 1 C-0.67 0.67 -0.34 0.34 0 0 Z " fill="#183344" transform="translate(805,532)"/>
<path d="M0 0 C5.28 0 10.56 0 16 0 C15.67 0.66 15.34 1.32 15 2 C11.04 1.67 7.08 1.34 3 1 C1.86995061 4.39014816 1.87058373 6.99381313 1.8671875 10.56640625 C1.86589844 11.85611328 1.86460937 13.14582031 1.86328125 14.47460938 C1.86537598 15.14516357 1.8674707 15.81571777 1.86962891 16.5065918 C1.87498957 18.5585059 1.86967119 20.61020199 1.86328125 22.66210938 C1.86457031 23.95052734 1.86585938 25.23894531 1.8671875 26.56640625 C1.86831543 27.75177979 1.86944336 28.93715332 1.87060547 30.15844727 C1.80493659 32.94825959 1.80493659 32.94825959 3 35 C2.0625 37.125 2.0625 37.125 1 39 C-0.30351387 35.04886452 -0.12612281 31.06175257 -0.09765625 26.953125 C-0.0962413 26.18192322 -0.09482635 25.41072144 -0.09336853 24.6161499 C-0.08778534 22.16072662 -0.07523595 19.70539558 -0.0625 17.25 C-0.05748283 15.58203257 -0.0529203 13.91406371 -0.04882812 12.24609375 C-0.03867366 8.16399864 -0.01909507 4.0821022 0 0 Z " fill="#0B3A4D" transform="translate(894,439)"/>
<path d="M0 0 C0.33 0 0.66 0 1 0 C1.86809439 5.20173095 2.12515348 10.16978816 2.0625 15.4375 C2.05798828 16.16904297 2.05347656 16.90058594 2.04882812 17.65429688 C2.03718148 19.43623419 2.01925191 21.21812863 2 23 C1.34 23 0.68 23 0 23 C-1.62538055 19.7492389 -1.14277895 16.19264307 -1.125 12.625 C-1.12886719 11.85671875 -1.13273438 11.0884375 -1.13671875 10.296875 C-1.13542969 9.55179687 -1.13414062 8.80671875 -1.1328125 8.0390625 C-1.13168457 7.36053223 -1.13055664 6.68200195 -1.12939453 5.98291016 C-0.99266834 3.88764583 -0.56770955 2.01770852 0 0 Z " fill="#213A4B" transform="translate(820,497)"/>
<path d="M0 0 C1.47436523 0.07734375 1.47436523 0.07734375 2.97851562 0.15625 C4.00267578 0.22070312 5.02683594 0.28515625 6.08203125 0.3515625 C7.63567383 0.43664062 7.63567383 0.43664062 9.22070312 0.5234375 C11.77934396 0.66492916 14.33700609 0.81634116 16.89453125 0.9765625 C14.89453125 2.9765625 14.89453125 2.9765625 10.9375 3.20703125 C9.31895198 3.20303484 7.70040339 3.18825532 6.08203125 3.1640625 C5.27443359 3.16341797 4.46683594 3.16277344 3.63476562 3.16210938 C-0.40205463 3.13235394 -4.16774054 2.97497229 -8.10546875 1.9765625 C-4.7389507 -0.26778287 -3.88949887 -0.22482652 0 0 Z " fill="#1F3344" transform="translate(780.10546875,555.0234375)"/>
<path d="M0 0 C0.08089542 2.77141717 0.14044062 5.54047819 0.1875 8.3125 C0.22520508 9.49102539 0.22520508 9.49102539 0.26367188 10.69335938 C0.27817383 11.8293457 0.27817383 11.8293457 0.29296875 12.98828125 C0.31653442 14.03302612 0.31653442 14.03302612 0.34057617 15.09887695 C0 17 0 17 -3 20 C-3 14.39 -3 8.78 -3 3 C-4.65 3.33 -6.3 3.66 -8 4 C-6.4425489 0.88509781 -3.40085499 0 0 0 Z " fill="#188681" transform="translate(262,592)"/>
<path d="M0 0 C0.33 0 0.66 0 1 0 C1 2.31 1 4.62 1 7 C1.66 7 2.32 7 3 7 C3 6.34 3 5.68 3 5 C4.32 4.67 5.64 4.34 7 4 C7.33 6.64 7.66 9.28 8 12 C5.36 11.67 2.72 11.34 0 11 C0 7.37 0 3.74 0 0 Z " fill="#184F5C" transform="translate(206,606)"/>
<path d="M0 0 C2.59390243 2.29210343 3.77766187 4.39146755 5.04296875 7.59765625 C5.39423828 8.48130859 5.74550781 9.36496094 6.10742188 10.27539062 C6.46384766 11.19513672 6.82027344 12.11488281 7.1875 13.0625 C7.55552734 13.98611328 7.92355469 14.90972656 8.30273438 15.86132812 C11 22.71208256 11 22.71208256 11 25 C10.34 25 9.68 25 9 25 C7.32454259 21.00362208 5.66033683 17.00268172 4 13 C3.39478516 11.55560547 3.39478516 11.55560547 2.77734375 10.08203125 C2.41769531 9.20933594 2.05804687 8.33664062 1.6875 7.4375 C1.36136719 6.65246094 1.03523437 5.86742187 0.69921875 5.05859375 C0 3 0 3 0 0 Z " fill="#243241" transform="translate(645,458)"/>
<path d="M0 0 C0.66 0 1.32 0 2 0 C3.22517308 5.66642551 3.09228867 11.23708518 3 17 C2.34 17.33 1.68 17.66 1 18 C-0.59412284 14.81175432 -0.10174735 11.37103338 -0.0625 7.875 C-0.05798828 7.12089844 -0.05347656 6.36679687 -0.04882812 5.58984375 C-0.03703499 3.72652873 -0.01909942 1.86325445 0 0 Z " fill="#0B2336" transform="translate(831,509)"/>
<path d="M0 0 C0.66 0.33 1.32 0.66 2 1 C2 1.66 2 2.32 2 3 C1.05125 3.268125 0.1025 3.53625 -0.875 3.8125 C-4.25267273 4.74986588 -4.25267273 4.74986588 -6 8 C-7.32 8 -8.64 8 -10 8 C-10.66 9.65 -11.32 11.3 -12 13 C-12.99 12.67 -13.98 12.34 -15 12 C-10.94726676 6.48510417 -6.47239827 2.48540094 0 0 Z " fill="#233746" transform="translate(768,471)"/>
<path d="M0 0 C2.5625 -0.4375 2.5625 -0.4375 6 0 C10.22730113 3.15709831 13.69306741 7.25043291 16 12 C16 12.66 16 13.32 16 14 C15.34 14 14.68 14 14 14 C12.59765625 12.1015625 12.59765625 12.1015625 11.0625 9.625 C9.13412371 6.51789754 8.10276927 5.06851285 5 3 C4.67 3.99 4.34 4.98 4 6 C3.34 6 2.68 6 2 6 C2 4.68 2 3.36 2 2 C1.34 2 0.68 2 0 2 C0 1.34 0 0.68 0 0 Z " fill="#0F2637" transform="translate(478,474)"/>
<path d="M0 0 C5.94 0 11.88 0 18 0 C17.67 2.31 17.34 4.62 17 7 C16.67 7 16.34 7 16 7 C16 5.35 16 3.7 16 2 C10.72 2 5.44 2 0 2 C0 1.34 0 0.68 0 0 Z " fill="#041E33" transform="translate(894,437)"/>
<path d="M0 0 C0.66 0 1.32 0 2 0 C2.6875 2.25 2.6875 2.25 3 5 C1.6875 7.3125 1.6875 7.3125 0 9 C-0.66 9 -1.32 9 -2 9 C-2.33 10.65 -2.66 12.3 -3 14 C-3.66 14 -4.32 14 -5 14 C-4.54636829 12.41531323 -4.08688548 10.83230076 -3.625 9.25 C-3.36976563 8.36828125 -3.11453125 7.4865625 -2.8515625 6.578125 C-2.0790066 4.23919428 -1.16374324 2.16557438 0 0 Z " fill="#1A3041" transform="translate(203,504)"/>
<path d="M0 0 C3.46566672 2.73714819 4.65796074 6.57059135 6.1875 10.5625 C6.46013672 11.24763672 6.73277344 11.93277344 7.01367188 12.63867188 C9 17.71152491 9 17.71152491 9 20 C8.34 20 7.68 20 7 20 C3.75956186 13.3830748 1.30960645 7.26236302 0 0 Z " fill="#213140" transform="translate(657,488)"/>
<path d="M0 0 C5.99291003 0.41330414 9.25036599 1.31903365 14 5 C13.01 5.495 13.01 5.495 12 6 C9.375 5.0625 9.375 5.0625 7 4 C6.67 4.66 6.34 5.32 6 6 C5.67 5.01 5.34 4.02 5 3 C4.01 3.33 3.02 3.66 2 4 C2 3.34 2 2.68 2 2 C1.34 2 0.68 2 0 2 C0 1.34 0 0.68 0 0 Z " fill="#102B3C" transform="translate(793,470)"/>
<path d="M0 0 C2.97 0 5.94 0 9 0 C7.68 0.33 6.36 0.66 5 1 C5 2.98 5 4.96 5 7 C3 7 1 7 -1 7 C-1 6.01 -1 5.02 -1 4 C-0.34 4 0.32 4 1 4 C0.67 2.68 0.34 1.36 0 0 Z " fill="#042437" transform="translate(460,469)"/>
<path d="M0 0 C2 1 2 1 3.0625 3.875 C3.371875 4.90625 3.68125 5.9375 4 7 C4.33 7.99 4.66 8.98 5 10 C4.34 10.66 3.68 11.32 3 12 C2.01 11.67 1.02 11.34 0 11 C-0.19491452 9.54263913 -0.38069358 8.08405407 -0.5625 6.625 C-0.66691406 5.81289063 -0.77132813 5.00078125 -0.87890625 4.1640625 C-1 2 -1 2 0 0 Z " fill="#203F50" transform="translate(476,494)"/>
<path d="M0 0 C0.33820166 1.5823006 0.67035939 3.16589375 1 4.75 C1.185625 5.63171875 1.37125 6.5134375 1.5625 7.421875 C2 10 2 10 2 14 C1.34 14 0.68 14 0 14 C0 12.35 0 10.7 0 9 C-0.66 9 -1.32 9 -2 9 C-2.33 6.36 -2.66 3.72 -3 1 C-1 0 -1 0 0 0 Z " fill="#1C3546" transform="translate(329,445)"/>
<path d="M0 0 C0.67095703 0.58007812 0.67095703 0.58007812 1.35546875 1.171875 C1.96003906 1.69265625 2.56460938 2.2134375 3.1875 2.75 C3.82171875 3.2965625 4.4559375 3.843125 5.109375 4.40625 C6.68220486 5.73210658 8.30440766 6.99912076 9.9375 8.25 C10.618125 8.8275 11.29875 9.405 12 10 C12 10.66 12 11.32 12 12 C8.83831632 10.56869725 6.37725517 8.82485862 3.75 6.5625 C3.04359375 5.96566406 2.3371875 5.36882813 1.609375 4.75390625 C0 3 0 3 0 0 Z " fill="#283846" transform="translate(518,542)"/>
<path d="M0 0 C0.66 0.99 1.32 1.98 2 3 C-2.625 7.875 -2.625 7.875 -6 9 C-6 9.66 -6 10.32 -6 11 C-6.99 10.67 -7.98 10.34 -9 10 C-6.03 6.7 -3.06 3.4 0 0 Z " fill="#2C3F4D" transform="translate(235,533)"/>
<path d="M0 0 C3.465 1.485 3.465 1.485 7 3 C7 3.33 7 3.66 7 4 C5.35 4 3.7 4 2 4 C1.67 4.99 1.34 5.98 1 7 C0.34 6.67 -0.32 6.34 -1 6 C-1.042721 4.33388095 -1.04063832 2.66617115 -1 1 C-0.67 0.67 -0.34 0.34 0 0 Z " fill="#203949" transform="translate(805,532)"/>
<path d="M0 0 C0.78375 0.185625 1.5675 0.37125 2.375 0.5625 C4.97089775 1.25962266 4.97089775 1.25962266 7 0 C8 3 8 3 6.5625 6.1875 C5.7890625 7.5796875 5.7890625 7.5796875 5 9 C3 7 3 7 2.5 3.9375 C2.335 2.968125 2.17 1.99875 2 1 C1.34 0.67 0.68 0.34 0 0 Z " fill="#042B3F" transform="translate(256,463)"/>
<path d="M0 0 C-0.598125 0.433125 -1.19625 0.86625 -1.8125 1.3125 C-3.70783087 2.77461239 -5.3528593 4.27050227 -7 6 C-7.33 5.01 -7.66 4.02 -8 3 C-8.99 2.34 -9.98 1.68 -11 1 C-6.87831311 -0.62950412 -4.29299643 -1.26264601 0 0 Z " fill="#173447" transform="translate(267,461)"/>
<path d="M0 0 C0.66 0 1.32 0 2 0 C2.33 3.63 2.66 7.26 3 11 C2.01 11.495 2.01 11.495 1 12 C-0.26237731 9.47524538 -0.09856404 7.68799534 -0.0625 4.875 C-0.05347656 3.96492187 -0.04445312 3.05484375 -0.03515625 2.1171875 C-0.02355469 1.41851563 -0.01195312 0.71984375 0 0 Z " fill="#124050" transform="translate(206,596)"/>
<path d="M0 0 C0.66 0 1.32 0 2 0 C2.17835515 4.54805635 1.99785435 7.8794254 0 12 C-0.33 12 -0.66 12 -1 12 C-1.02712066 10.56260487 -1.04645067 9.12506137 -1.0625 7.6875 C-1.07410156 6.88699219 -1.08570313 6.08648437 -1.09765625 5.26171875 C-1 3 -1 3 0 0 Z " fill="#17293A" transform="translate(833,494)"/>
<path d="M0 0 C1.04449911 3.13349732 0.93423645 3.98968256 0 7 C-1.98 7 -3.96 7 -6 7 C-4.02 4.69 -2.04 2.38 0 0 Z " fill="#2E4452" transform="translate(318,433)"/>
<path d="M0 0 C0.66 0 1.32 0 2 0 C2.33 2.31 2.66 4.62 3 7 C2.01 7.33 1.02 7.66 0 8 C-0.38063221 5.6739143 -0.71269945 3.33944736 -1 1 C-0.67 0.67 -0.34 0.34 0 0 Z " fill="#1A3444" transform="translate(493,488)"/>
<path d="M0 0 C0.66 0 1.32 0 2 0 C2.103125 0.639375 2.20625 1.27875 2.3125 1.9375 C2.539375 2.618125 2.76625 3.29875 3 4 C3.99 4.33 4.98 4.66 6 5 C6 5.66 6 6.32 6 7 C5.01 7.33 4.02 7.66 3 8 C0 2.25 0 2.25 0 0 Z " fill="#2A3E4C" transform="translate(513,534)"/>
<path d="M0 0 C3.44216672 2.6598561 3.99504674 5.90288286 5 10 C4.34 10 3.68 10 3 10 C0.96564469 6.27034861 0 4.33094958 0 0 Z " fill="#1F303F" transform="translate(667,513)"/>
<path d="M0 0 C0.33 0 0.66 0 1 0 C1 3.3 1 6.6 1 10 C0.01 9.67 -0.98 9.34 -2 9 C-1.34 6.03 -0.68 3.06 0 0 Z " fill="#1E9089" transform="translate(202,601)"/>
<path d="M0 0 C1.5 1.3125 1.5 1.3125 3 3 C3 3.99 3 4.98 3 6 C2.34 6 1.68 6 1 6 C0.67 6.66 0.34 7.32 0 8 C-0.38063221 5.6739143 -0.71269945 3.33944736 -1 1 C-0.67 0.67 -0.34 0.34 0 0 Z " fill="#1F394A" transform="translate(833,526)"/>
<path d="M0 0 C0.99 0 1.98 0 3 0 C2.67 1.65 2.34 3.3 2 5 C0.68 5 -0.64 5 -2 5 C-2 4.01 -2 3.02 -2 2 C-1.34 2 -0.68 2 0 2 C0 1.34 0 0.68 0 0 Z " fill="#163346" transform="translate(697,502)"/>
<path d="M0 0 C0.66 0 1.32 0 2 0 C1.67 1.98 1.34 3.96 1 6 C0.01 6.33 -0.98 6.66 -2 7 C-1.125 2.25 -1.125 2.25 0 0 Z " fill="#1F3444" transform="translate(748,490)"/>
<path d="M0 0 C0 3 0 3 -2 6 C-3.32 5.67 -4.64 5.34 -6 5 C-4.02 3.35 -2.04 1.7 0 0 Z " fill="#293C4B" transform="translate(847,475)"/>
<path d="M0 0 C-0.33 1.32 -0.66 2.64 -1 4 C-3.31 4 -5.62 4 -8 4 C-6.4425489 0.88509781 -3.40085499 0 0 0 Z " fill="#268A84" transform="translate(262,592)"/>
<path d="M0 0 C0.99 0.99 1.98 1.98 3 3 C3.66 2.67 4.32 2.34 5 2 C4.67 3.98 4.34 5.96 4 8 C1.10067643 5.60490662 0.49831724 3.68754757 0 0 Z " fill="#192635" transform="translate(201,565)"/>
<path d="M0 0 C0.33 0.66 0.66 1.32 1 2 C-0.32 3.65 -1.64 5.3 -3 7 C-3.66 6.67 -4.32 6.34 -5 6 C-2.25 1.125 -2.25 1.125 0 0 Z " fill="#1C384A" transform="translate(227,477)"/>
<path d="" fill="#E4DDD1" transform="translate(0,0)"/>
<path d="" fill="#E1DACE" transform="translate(0,0)"/>
<path d="" fill="#E4E1D1" transform="translate(0,0)"/>
<path d="" fill="#E5DBCB" transform="translate(0,0)"/>
<path d="" fill="#E6E0D1" transform="translate(0,0)"/>
</svg>
